<mxfile host="app.diagrams.net" agent="Mozilla/5.0 (Windows NT 10.0; Win64; x64) AppleWebKit/537.36 (KHTML, like Gecko) Chrome/131.0.0.0 Safari/537.36 Edg/131.0.0.0" version="24.9.0">
  <diagram name="Page-1" id="lzwrQbHtwTEJEjT07zNH">
    <mxGraphModel dx="1267" dy="226" grid="1" gridSize="10" guides="1" tooltips="1" connect="1" arrows="1" fold="1" page="1" pageScale="1" pageWidth="850" pageHeight="1100" math="0" shadow="0">
      <root>
        <mxCell id="0" />
        <mxCell id="1" parent="0" />
        <mxCell id="GU9igvx3il84CoDvf35e-3" value="" style="edgeStyle=orthogonalEdgeStyle;rounded=0;orthogonalLoop=1;jettySize=auto;html=1;" edge="1" parent="1" source="GU9igvx3il84CoDvf35e-1" target="GU9igvx3il84CoDvf35e-2">
          <mxGeometry relative="1" as="geometry" />
        </mxCell>
        <mxCell id="GU9igvx3il84CoDvf35e-1" value="&lt;font data-font-src=&quot;https://fonts.googleapis.com/css?family=Sarabun&quot; face=&quot;Sarabun&quot;&gt;Start&lt;/font&gt;" style="ellipse;whiteSpace=wrap;html=1;" vertex="1" parent="1">
          <mxGeometry x="-630.0000000000001" y="60" width="130" height="30" as="geometry" />
        </mxCell>
        <mxCell id="GU9igvx3il84CoDvf35e-5" value="" style="edgeStyle=orthogonalEdgeStyle;rounded=0;orthogonalLoop=1;jettySize=auto;html=1;" edge="1" parent="1" source="GU9igvx3il84CoDvf35e-2" target="GU9igvx3il84CoDvf35e-4">
          <mxGeometry relative="1" as="geometry" />
        </mxCell>
        <mxCell id="GU9igvx3il84CoDvf35e-2" value="กำหนดตัวแปร input1" style="rounded=0;whiteSpace=wrap;html=1;" vertex="1" parent="1">
          <mxGeometry x="-630.0000000000001" y="130" width="130" height="40" as="geometry" />
        </mxCell>
        <mxCell id="GU9igvx3il84CoDvf35e-10" value="" style="edgeStyle=orthogonalEdgeStyle;rounded=0;orthogonalLoop=1;jettySize=auto;html=1;" edge="1" parent="1" source="GU9igvx3il84CoDvf35e-4" target="GU9igvx3il84CoDvf35e-9">
          <mxGeometry relative="1" as="geometry" />
        </mxCell>
        <mxCell id="GU9igvx3il84CoDvf35e-4" value="กรอกค่า input1" style="shape=parallelogram;perimeter=parallelogramPerimeter;whiteSpace=wrap;html=1;fixedSize=1;" vertex="1" parent="1">
          <mxGeometry x="-630.0000000000001" y="210" width="130" height="40" as="geometry" />
        </mxCell>
        <mxCell id="GU9igvx3il84CoDvf35e-13" value="" style="edgeStyle=orthogonalEdgeStyle;rounded=0;orthogonalLoop=1;jettySize=auto;html=1;" edge="1" parent="1" source="GU9igvx3il84CoDvf35e-8" target="GU9igvx3il84CoDvf35e-12">
          <mxGeometry relative="1" as="geometry" />
        </mxCell>
        <mxCell id="GU9igvx3il84CoDvf35e-15" value="" style="edgeStyle=orthogonalEdgeStyle;rounded=0;orthogonalLoop=1;jettySize=auto;html=1;" edge="1" parent="1" source="GU9igvx3il84CoDvf35e-8" target="GU9igvx3il84CoDvf35e-14">
          <mxGeometry relative="1" as="geometry" />
        </mxCell>
        <mxCell id="GU9igvx3il84CoDvf35e-8" value="input1&lt;div&gt;มีเศษหริอไม่&lt;/div&gt;" style="rhombus;whiteSpace=wrap;html=1;" vertex="1" parent="1">
          <mxGeometry x="-631.67" y="370" width="133.33" height="100" as="geometry" />
        </mxCell>
        <mxCell id="GU9igvx3il84CoDvf35e-11" value="" style="edgeStyle=orthogonalEdgeStyle;rounded=0;orthogonalLoop=1;jettySize=auto;html=1;" edge="1" parent="1" source="GU9igvx3il84CoDvf35e-9" target="GU9igvx3il84CoDvf35e-8">
          <mxGeometry relative="1" as="geometry" />
        </mxCell>
        <mxCell id="GU9igvx3il84CoDvf35e-9" value="คำ input1 ไปหาร 2 เอาเศษ" style="rounded=0;whiteSpace=wrap;html=1;" vertex="1" parent="1">
          <mxGeometry x="-630.0000000000001" y="290" width="130" height="40" as="geometry" />
        </mxCell>
        <mxCell id="GU9igvx3il84CoDvf35e-20" style="edgeStyle=orthogonalEdgeStyle;rounded=0;orthogonalLoop=1;jettySize=auto;html=1;entryX=1;entryY=0.5;entryDx=0;entryDy=0;" edge="1" parent="1" source="GU9igvx3il84CoDvf35e-12" target="GU9igvx3il84CoDvf35e-17">
          <mxGeometry relative="1" as="geometry">
            <Array as="points">
              <mxPoint x="-260" y="420" />
              <mxPoint x="-260" y="632" />
            </Array>
          </mxGeometry>
        </mxCell>
        <mxCell id="GU9igvx3il84CoDvf35e-12" value="พิม odd integer&lt;div&gt;(จํานวนเต็มคี่)&lt;/div&gt;" style="shape=parallelogram;perimeter=parallelogramPerimeter;whiteSpace=wrap;html=1;fixedSize=1;" vertex="1" parent="1">
          <mxGeometry x="-440.0000000000001" y="400" width="130" height="40" as="geometry" />
        </mxCell>
        <mxCell id="GU9igvx3il84CoDvf35e-18" value="" style="edgeStyle=orthogonalEdgeStyle;rounded=0;orthogonalLoop=1;jettySize=auto;html=1;" edge="1" parent="1" source="GU9igvx3il84CoDvf35e-14" target="GU9igvx3il84CoDvf35e-17">
          <mxGeometry relative="1" as="geometry" />
        </mxCell>
        <mxCell id="GU9igvx3il84CoDvf35e-14" value="&lt;div&gt;พิม even integer&lt;/div&gt;&lt;div&gt;(จํานวนเต็มคู่)&lt;/div&gt;" style="shape=parallelogram;perimeter=parallelogramPerimeter;whiteSpace=wrap;html=1;fixedSize=1;" vertex="1" parent="1">
          <mxGeometry x="-630.0000000000001" y="540" width="130" height="40" as="geometry" />
        </mxCell>
        <mxCell id="GU9igvx3il84CoDvf35e-16" value="&lt;font data-font-src=&quot;https://fonts.googleapis.com/css?family=Sarabun&quot; face=&quot;Sarabun&quot;&gt;Start&lt;/font&gt;" style="ellipse;whiteSpace=wrap;html=1;" vertex="1" parent="1">
          <mxGeometry x="-630.6700000000001" y="680" width="130" height="30" as="geometry" />
        </mxCell>
        <mxCell id="GU9igvx3il84CoDvf35e-19" value="" style="edgeStyle=orthogonalEdgeStyle;rounded=0;orthogonalLoop=1;jettySize=auto;html=1;" edge="1" parent="1" source="GU9igvx3il84CoDvf35e-17" target="GU9igvx3il84CoDvf35e-16">
          <mxGeometry relative="1" as="geometry" />
        </mxCell>
        <mxCell id="GU9igvx3il84CoDvf35e-17" value="" style="ellipse;whiteSpace=wrap;html=1;aspect=fixed;" vertex="1" parent="1">
          <mxGeometry x="-578.17" y="620" width="25" height="25" as="geometry" />
        </mxCell>
      </root>
    </mxGraphModel>
  </diagram>
</mxfile>
